<svg width="24" height="24" viewBox="0 0 24 24" fill="none" xmlns="http://www.w3.org/2000/svg">
<path d="M19 15H5C2.6 15 2 13.6667 2 13V16C2 17.6 4 18 5 18H19C21.4 18 22 17 22 16.5V13C22 14.6 20 15 19 15Z" fill="#C5CEE0"/>
<path d="M20 6H4C2.89543 6 2 6.89543 2 8V16C2 17.1046 2.89543 18 4 18H20C21.1046 18 22 17.1046 22 16V8C22 6.89543 21.1046 6 20 6Z" stroke="#080A12" stroke-width="1.5" stroke-linecap="round" stroke-linejoin="round"/>
<path d="M8 10V14M6 12H10H6Z" stroke="#080A12" stroke-width="1.5" stroke-linecap="round" stroke-linejoin="round"/>
<path d="M15 11V11.01" stroke="#080A12" stroke-width="1.5" stroke-linecap="round" stroke-linejoin="round"/>
<path d="M18 13V13.01" stroke="#080A12" stroke-width="1.5" stroke-linecap="round" stroke-linejoin="round"/>
</svg>
