<svg width="16" height="16" viewBox="0 0 16 16" fill="none" xmlns="http://www.w3.org/2000/svg">
<path d="M5.99967 3.33325H4.66634C4.31272 3.33325 3.97358 3.47373 3.72353 3.72378C3.47348 3.97382 3.33301 4.31296 3.33301 4.66659V12.6666C3.33301 13.0202 3.47348 13.3593 3.72353 13.6094C3.97358 13.8594 4.31272 13.9999 4.66634 13.9999H11.333C11.6866 13.9999 12.0258 13.8594 12.2758 13.6094C12.5259 13.3593 12.6663 13.0202 12.6663 12.6666V4.66659C12.6663 4.31296 12.5259 3.97382 12.2758 3.72378C12.0258 3.47373 11.6866 3.33325 11.333 3.33325H9.99967" stroke="#3B4B72" stroke-linecap="round" stroke-linejoin="round"/>
<path d="M8.66667 2H7.33333C6.59695 2 6 2.59695 6 3.33333C6 4.06971 6.59695 4.66667 7.33333 4.66667H8.66667C9.40305 4.66667 10 4.06971 10 3.33333C10 2.59695 9.40305 2 8.66667 2Z" stroke="#3B4B72" stroke-linecap="round" stroke-linejoin="round"/>
<path d="M6 8H6.00667" stroke="#3B4B72" stroke-linecap="round" stroke-linejoin="round"/>
<path d="M8.66699 8H10.0003" stroke="#3B4B72" stroke-linecap="round" stroke-linejoin="round"/>
<path d="M6 10.6667H6.00667" stroke="#3B4B72" stroke-linecap="round" stroke-linejoin="round"/>
<path d="M8.66699 10.6667H10.0003" stroke="#3B4B72" stroke-linecap="round" stroke-linejoin="round"/>
</svg>
