<svg width="24" height="24" viewBox="0 0 24 24" fill="none" xmlns="http://www.w3.org/2000/svg">
<path d="M12.5 16C17.7 15.2 19 9.66667 19 7C23.5001 10.5 19.9999 18.5 14.9999 19.5C10.9999 20.3 8.66659 19.5 7.99992 19L2.99992 20C3.16662 19.1667 3.6 17.2 4 16C2.8 14 2.83333 11.1667 3 10C4 12.3333 7.3 16.8 12.5 16Z" fill="#C5CEE0"/>
<path d="M3 20.0001L4.3 16.1001C3.17644 14.4384 2.76999 12.4705 3.15622 10.5624C3.54244 8.65427 4.69506 6.93575 6.39977 5.72635C8.10447 4.51696 10.2453 3.89898 12.4241 3.98732C14.6029 4.07566 16.6715 4.86431 18.2453 6.20664C19.819 7.54896 20.7909 9.35362 20.9801 11.2851C21.1693 13.2165 20.563 15.1433 19.2739 16.7072C17.9848 18.2711 16.1007 19.3657 13.9718 19.7874C11.8429 20.2092 9.6142 19.9294 7.7 19.0001L3 20.0001" stroke="#080A12" stroke-width="1.5" stroke-linecap="round" stroke-linejoin="round"/>
<path d="M12 12V12.01" stroke="#080A12" stroke-width="1.5" stroke-linecap="round" stroke-linejoin="round"/>
<path d="M8 12V12.01" stroke="#080A12" stroke-width="1.5" stroke-linecap="round" stroke-linejoin="round"/>
<path d="M16 12V12.01" stroke="#080A12" stroke-width="1.5" stroke-linecap="round" stroke-linejoin="round"/>
</svg>
