<svg width="24" height="24" viewBox="0 0 24 24" fill="none" xmlns="http://www.w3.org/2000/svg">
<path d="M11.4173 0.999513L3.41727 7.39951C2.94284 7.77906 2.66666 8.35368 2.66666 8.96125V15.0388C2.66666 15.6463 2.94284 16.2209 3.41727 16.6005L11.4173 23.0005C12.1477 23.5848 13.1856 23.5848 13.916 23.0005L21.916 16.6005C22.3905 16.2209 22.6667 15.6463 22.6667 15.0387V8.96125C22.6667 8.35368 22.3905 7.77906 21.916 7.39951L13.916 0.999512C13.1856 0.415162 12.1477 0.415163 11.4173 0.999513Z" fill="#E8AA4A" stroke="white"/>
<g clip-path="url(#clip0_363_10505)">
<path d="M18.8384 9.86626C18.7098 9.79336 18.5379 9.79188 18.4077 9.86179L16.2215 11.0142C16.1375 11.0591 16.0787 11.129 16.0594 11.2085C16.0393 11.2876 16.0601 11.37 16.1167 11.4373C16.2424 11.5873 16.3086 11.7622 16.3086 11.9434C16.3086 12.4475 15.7961 12.8575 15.166 12.8575C14.536 12.8575 14.0234 12.4475 14.0234 11.9434C14.0234 11.6471 14.2064 11.3677 14.5121 11.1957C14.684 11.0993 14.7256 10.9094 14.6051 10.7717L12.8117 8.7219C12.6703 8.55885 12.3296 8.55885 12.1883 8.7219L10.3949 10.7717C10.2744 10.9095 10.316 11.0993 10.4878 11.1957C10.7936 11.3677 10.9766 11.6471 10.9766 11.9434C10.9766 12.4475 10.464 12.8575 9.83398 12.8575C9.20394 12.8575 8.6914 12.4475 8.6914 11.9434C8.6914 11.7622 8.75759 11.5873 8.88333 11.4373C8.93987 11.3701 8.96069 11.2876 8.94061 11.2085C8.92126 11.129 8.86251 11.0591 8.77844 11.0142L6.59226 9.86181C6.46134 9.7919 6.29023 9.79338 6.16155 9.86628C6.03287 9.93888 5.97336 10.0671 6.01129 10.1891L7.55999 15.0641C7.6076 15.2177 7.79356 15.3203 7.99217 15.2909C10.984 14.8921 14.016 14.8921 17.0078 15.2909C17.0286 15.2938 17.0502 15.295 17.0703 15.295C17.2422 15.295 17.3969 15.2016 17.44 15.0641L18.9887 10.1891C19.0266 10.0671 18.9671 9.93886 18.8384 9.86626Z" fill="white"/>
</g>
<defs>
<clipPath id="clip0_363_10505">
<rect width="13" height="13" fill="white" transform="translate(6 6)"/>
</clipPath>
</defs>
</svg>
